# xmcd
#
# Track frame offsets:
#	150
#	10208
#	24003
#	41065
#	54890
#	68540
#	84550
#	93637
#	104464
#	117645
#
# Disc length: 1801 seconds
#
# Revision: 2
# Processed by: cddbd v1.5.1PL2 Copyright (c) Steve Scherf et al.
# Submitted via: dBpowerAMP V4.0
#
DISCID=7607070a
DTITLE=Various Artist - Christmas With The Gentlemen Of County Music Vol 2
DYEAR=2000
DGENRE=Christmas
TTITLE0=Santa Claus And Popcorn - Merle Haggard
TTITLE1=The First Noel - B.J. Thomas
TTITLE2=O Little Town Of Bethlehem - Charley Pride
TTITLE3=Away In A Manger - Waylon Jennings
TTITLE4=What Child Is This - Lee Greenwood
TTITLE5=It Came Upon A Midnight Clear - Willie Nelson
TTITLE6=Jolly Old Saint Nicholas - Tom T. Hall
TTITLE7=Jingle Bells - Porter Wagoner
TTITLE8=God Rest Ye Merry Gentlemen - Roy Clark
TTITLE9=Carol Medley - Glen Campblee
EXTD=
EXTT0=
EXTT1=
EXTT2=
EXTT3=
EXTT4=
EXTT5=
EXTT6=
EXTT7=
EXTT8=
EXTT9=
PLAYORDER=
